<svg width="163" height="129" viewBox="0 0 163 129" fill="none" xmlns="http://www.w3.org/2000/svg">
<ellipse cx="81.5" cy="100.5" rx="81.5" ry="28.5" fill="black" fill-opacity="0.1"/>
<path d="M126.084 94.3125L82.0084 119.763L32.375 91.0379L76.4511 65.5938L126.084 94.3125Z" fill="white"/>
<path opacity="0.5" d="M126.084 94.3125L82.0084 119.763L32.375 91.0379L76.4511 65.5938L126.084 94.3125Z" fill="black"/>
<path d="M76.4511 31.0977V65.5948L32.375 91.039V56.5478L76.4511 31.0977Z" fill="white"/>
<path opacity="0.23" d="M76.4511 31.0977V65.5948L32.375 91.0389V56.5478L76.4511 31.0977Z" fill="black"/>
<path d="M82.0084 85.2656V119.763L32.375 91.0381V56.5469L82.0084 85.2656Z" fill="white"/>
<path d="M82.0084 85.2656V119.763L32.375 91.0381V56.5469L82.0084 85.2656Z" fill="black" fill-opacity="0.38"/>
<path d="M126.083 59.8164V94.3136L76.4492 65.5948V31.0977L126.083 59.8164Z" fill="white"/>
<path opacity="0.4" d="M126.083 59.8164V94.3136L76.4492 65.5948V31.0977L126.083 59.8164Z" fill="black"/>
<path d="M126.084 94.3136V59.8164L82.0078 85.2665V119.764L126.084 94.3136Z" fill="white"/>
<path d="M126.084 94.3136V59.8164L82.0078 85.2665V119.764L126.084 94.3136Z" fill="black" fill-opacity="0.23"/>
<path d="M76.4492 31.098L76.509 12L126.023 40.7546L126.083 59.8168L76.4492 31.098Z" fill="white"/>
<path opacity="0.2" d="M76.4492 31.098L76.509 12L126.023 40.7546L126.083 59.8168L76.4492 31.098Z" fill="black"/>
<path d="M82.0078 85.2666L86.1429 68.5588L129.819 43.3418L126.084 59.8165L82.0078 85.2666Z" fill="white"/>
<path opacity="0.3" d="M82.0078 85.2666L86.1429 68.5588L129.819 43.3418L126.084 59.8165L82.0078 85.2666Z" fill="black"/>
<path d="M32.3738 56.5468L27.1152 39.2176L71.1913 13.7734L76.4498 31.0967L32.3738 56.5468Z" fill="white"/>
<path opacity="0.1" d="M32.3738 56.5468L27.1152 39.2176L71.1913 13.7734L76.4498 31.0967L32.3738 56.5468Z" fill="black"/>
<path d="M32.3736 56.5481L22 42.2246L71.6393 70.9434L82.007 85.2669L32.3736 56.5481Z" fill="white"/>
<path opacity="0.45" d="M32.3736 56.5481L22 42.2246L71.6393 70.9434L82.007 85.2669L32.3736 56.5481Z" fill="black"/>
<g opacity="0.7">
<path d="M94.9878 109.506C94.9159 109.506 94.8469 109.477 94.7955 109.427C94.7441 109.377 94.7145 109.309 94.7129 109.237V103.165C94.7144 103.093 94.7439 103.024 94.7951 102.973C94.8463 102.922 94.9153 102.892 94.9878 102.891C95.0596 102.892 95.128 102.922 95.1783 102.973C95.2285 103.025 95.2567 103.094 95.2567 103.165V109.237C95.2567 109.308 95.2283 109.376 95.1779 109.427C95.1275 109.477 95.0591 109.506 94.9878 109.506Z" fill="white"/>
<path d="M94.1926 105.267C94.157 105.273 94.1207 105.273 94.0851 105.267C94.0198 105.237 93.9686 105.183 93.942 105.116C93.9153 105.05 93.9152 104.975 93.9417 104.909L94.9097 102.68L95.9853 103.923C96.0238 103.978 96.0404 104.046 96.032 104.113C96.0236 104.18 95.9907 104.242 95.9396 104.286C95.8886 104.331 95.8229 104.355 95.7553 104.354C95.6876 104.353 95.6227 104.327 95.573 104.281L95.0651 103.684L94.4675 105.118C94.4417 105.167 94.4017 105.208 94.3528 105.234C94.3038 105.261 94.2481 105.272 94.1926 105.267Z" fill="white"/>
<path d="M97.4916 108.078C97.4197 108.076 97.3513 108.047 97.301 107.995C97.2508 107.944 97.2226 107.875 97.2227 107.803V101.738C97.2227 101.666 97.251 101.598 97.3014 101.548C97.3518 101.497 97.4202 101.469 97.4916 101.469C97.5629 101.469 97.6313 101.497 97.6817 101.548C97.7321 101.598 97.7605 101.666 97.7605 101.738V107.797C97.7613 107.833 97.7549 107.869 97.7418 107.903C97.7288 107.936 97.7092 107.967 97.6842 107.993C97.6592 108.019 97.6294 108.04 97.5963 108.055C97.5633 108.069 97.5277 108.077 97.4916 108.078Z" fill="white"/>
<path d="M96.6952 103.84C96.6595 103.846 96.6232 103.846 96.5876 103.84C96.5548 103.826 96.5252 103.805 96.5004 103.779C96.4757 103.753 96.4564 103.723 96.4436 103.69C96.4308 103.656 96.4248 103.621 96.4259 103.585C96.427 103.549 96.4353 103.514 96.4502 103.481L97.4122 101.223L98.4878 102.46C98.5375 102.511 98.5653 102.579 98.5653 102.651C98.5653 102.722 98.5375 102.791 98.4878 102.842C98.4628 102.867 98.4331 102.887 98.4002 102.901C98.3674 102.915 98.3322 102.922 98.2966 102.922C98.261 102.922 98.2258 102.915 98.193 102.901C98.1602 102.887 98.1304 102.867 98.1054 102.842L97.5975 102.244L96.9999 103.679C96.9751 103.736 96.9314 103.784 96.876 103.813C96.8205 103.842 96.7567 103.852 96.6952 103.84Z" fill="white"/>
</g>
<g opacity="0.7">
<path d="M87.7598 113.622C87.6576 113.624 87.5568 113.599 87.467 113.551C87.3589 113.482 87.2714 113.385 87.2136 113.27C87.1558 113.155 87.1298 113.027 87.1383 112.899V112.152C87.1399 112.081 87.1695 112.012 87.2209 111.962C87.2723 111.912 87.3413 111.884 87.4132 111.884C87.4845 111.884 87.5529 111.912 87.6033 111.962C87.6537 112.013 87.6821 112.081 87.6821 112.152V112.899C87.6821 113.007 87.6821 113.067 87.7359 113.079C87.7896 113.091 87.8195 113.079 87.9091 113.031C88.0773 112.876 88.2098 112.686 88.2975 112.474C88.3852 112.263 88.426 112.035 88.4171 111.806V108.699C88.4171 108.627 88.4454 108.559 88.4958 108.508C88.5463 108.458 88.6147 108.43 88.686 108.43C88.7573 108.43 88.8257 108.458 88.8761 108.508C88.9266 108.559 88.9549 108.627 88.9549 108.699V111.806C88.9682 112.129 88.9054 112.45 88.7715 112.744C88.6376 113.037 88.4363 113.295 88.184 113.497C88.0563 113.576 87.9098 113.619 87.7598 113.622Z" fill="white"/>
<path d="M84.9102 111.118V110.651C84.9812 109.455 85.331 108.291 85.9318 107.253C86.5325 106.216 87.3675 105.333 88.37 104.676C89.35 104.114 90.2822 104.03 90.9993 104.449C91.3818 104.711 91.6867 105.071 91.8822 105.492C92.0778 105.912 92.1567 106.378 92.1108 106.839V106.994L84.9102 111.118ZM89.9954 104.7C89.5169 104.722 89.052 104.866 88.6449 105.118C87.7858 105.683 87.0583 106.427 86.5119 107.298C85.9654 108.169 85.6128 109.148 85.4778 110.167L91.555 106.654C91.581 106.308 91.517 105.961 91.3694 105.647C91.2218 105.333 90.9955 105.062 90.7125 104.861C90.4917 104.745 90.2444 104.69 89.9954 104.7Z" fill="white"/>
</g>
<path opacity="0.7" d="M22 42.2246L71.6393 70.9434L82.007 85.2669L71.0896 71.4513L22 42.2246Z" fill="white"/>
<path opacity="0.7" d="M126.084 59.8164L82.0078 85.2665V119.764L82.8324 85.9597L126.084 59.8164Z" fill="white"/>
<path d="M67.7514 56.8363C72.2989 56.179 76.4519 53.2509 79.1051 49.57C80.3424 47.8501 81.2538 45.9179 81.7941 43.8692C82.3679 41.9535 82.4623 39.9261 82.069 37.9653C81.2503 34.6847 78.2147 32.7427 75.0058 32.3363C73.3775 32.1221 71.7218 32.2836 70.1656 32.8084C68.5519 33.3622 67.152 34.4069 66.1619 35.7962C65.5411 36.5364 65.1506 37.442 65.0385 38.4016C65.029 38.7774 65.1615 39.143 65.4096 39.4254C65.6577 39.7078 66.0031 39.8864 66.377 39.9253C67.3392 40.0064 68.3008 39.7623 69.1079 39.2322C70.092 38.6803 70.9588 37.9414 71.6595 37.057C73.1625 35.2021 74.2872 33.0704 74.97 30.7827C75.449 28.8196 75.449 26.7701 74.97 24.8071C74.606 22.7535 73.6674 20.8453 72.263 19.3035C70.653 17.8394 68.6098 16.9395 66.4428 16.74C64.286 16.4437 62.09 16.6481 60.025 17.3376C59.1179 17.6125 58.2777 18.0724 57.557 18.688C57.0431 19.1661 56.4575 19.9549 56.6667 20.7317C56.8758 21.5085 58.0112 21.8551 58.782 21.7535C59.9229 21.5397 60.9679 20.9733 61.7698 20.1341C62.6635 19.2543 63.4226 18.2476 64.0227 17.1463C64.4684 16.3549 64.7011 15.4613 64.6979 14.5529C64.6202 10.7644 60.4313 8.31439 57.1507 7.62122C56.2651 7.4362 55.358 7.37587 54.4557 7.44195C54.151 7.44195 54.3362 7.9439 54.5812 7.92598C56.3466 7.84575 58.101 8.24204 59.6605 9.07329C61.199 9.78045 62.4912 10.9312 63.3713 12.3778C63.7635 13.091 63.9571 13.8964 63.9319 14.71C63.9067 15.5235 63.6635 16.3154 63.2279 17.0029C62.6428 18.022 61.9143 18.9518 61.0647 19.7636C60.3536 20.409 59.272 21.156 58.2741 21.0843C58.1094 21.0839 57.948 21.0372 57.8086 20.9495C57.6691 20.8618 57.5571 20.7366 57.4853 20.5883C57.4552 20.3921 57.4714 20.1915 57.5326 20.0027C57.5939 19.8138 57.6984 19.6419 57.8379 19.5007C58.3656 18.9324 59.0182 18.4947 59.7441 18.2219C61.5368 17.4767 63.478 17.1576 65.415 17.2897C67.4111 17.3259 69.3524 17.9494 70.9962 19.0824C72.4282 20.2714 73.4452 21.8848 73.9003 23.6896C74.4769 25.5231 74.6561 27.4583 74.4262 29.3664C74.0713 31.2865 73.3336 33.1155 72.257 34.7445C71.1515 36.573 69.7652 38.3299 67.6857 39.0469C67.1718 39.2322 66.0962 39.5011 65.893 38.7541C65.6898 38.0072 66.2755 37.0869 66.6519 36.5073C67.4844 35.1971 68.698 34.1732 70.1297 33.5733C71.5112 33.0195 73.0025 32.7945 74.4859 32.916C77.3004 33.1251 80.1568 34.5951 81.1368 37.3917C81.6284 39.063 81.6819 40.8327 81.2921 42.5307C80.9406 44.3919 80.2715 46.1788 79.3142 47.8131C77.255 51.2857 74.1364 54.0064 70.4165 55.5755C69.5322 55.9579 68.6239 56.2806 67.6976 56.5794C67.602 56.6152 67.6439 56.8542 67.7514 56.8363Z" fill="#E0E0E0"/>
<path d="M48.7559 4.95646C46.3656 4.78316 43.0731 6.66548 44.2443 8.03987C45.4155 9.41426 48.5228 7.19133 48.5228 7.19133C48.5228 7.19133 48.23 9.96999 49.2459 10.2867C50.2617 10.6034 51.6361 7.95023 50.6203 6.25316C51.1102 6.4463 51.641 6.51251 52.1633 6.44565C52.6856 6.37879 53.1826 6.18103 53.6081 5.87072C55.0542 4.80706 53.5244 3.80316 51.4867 3.98243C51.4867 3.98243 52.9448 -0.798055 49.9988 0.116212C48.5228 0.564383 48.003 2.29134 48.7559 4.95646Z" fill="white"/>
<path opacity="0.65" d="M48.7559 4.95646C46.3656 4.78316 43.0731 6.66548 44.2443 8.03987C45.4155 9.41426 48.5228 7.19133 48.5228 7.19133C48.5228 7.19133 48.23 9.96999 49.2459 10.2867C50.2617 10.6034 51.6361 7.95023 50.6203 6.25316C51.1102 6.4463 51.641 6.51251 52.1633 6.44565C52.6856 6.37879 53.1826 6.18103 53.6081 5.87072C55.0542 4.80707 53.5244 3.80316 51.4867 3.98243C51.4867 3.98243 52.9448 -0.798055 49.9988 0.116212C48.5228 0.564383 48.003 2.29134 48.7559 4.95646Z" fill="#D8D8D8"/>
<path d="M50.9794 5.97328C50.8471 5.84378 50.7074 5.72207 50.5611 5.60876C50.3519 5.44742 50.1308 5.29206 49.9217 5.1367C49.7181 4.98863 49.5044 4.85485 49.2823 4.73632C49.1545 4.66537 49.0228 4.60154 48.8879 4.54511C48.7017 4.45766 48.4946 4.42452 48.2904 4.4495C48.2368 4.45101 48.1847 4.46687 48.1394 4.49542C48.0941 4.52398 48.0574 4.56419 48.0329 4.61182C48.0085 4.65946 47.9973 4.71279 48.0005 4.76623C48.0038 4.81967 48.0213 4.87125 48.0513 4.91559C48.2156 5.09355 48.4207 5.2289 48.6489 5.30998L48.9716 5.48327C49.1927 5.61474 49.3899 5.76413 49.5691 5.91352C49.7484 6.06291 49.9874 6.20632 50.1667 6.35571C50.4749 6.60571 50.8195 6.80721 51.1885 6.95327C51.205 6.96217 51.2235 6.96682 51.2423 6.96682C51.2611 6.96682 51.2795 6.96217 51.2961 6.95327C51.6008 6.71425 51.1527 6.14657 50.9794 5.97328Z" fill="#455A64"/>
</svg>
